<mxfile host="app.diagrams.net" agent="Mozilla/5.0 (Windows NT 10.0; Win64; x64) AppleWebKit/537.36 (KHTML, like Gecko) Chrome/127.0.0.0 Safari/537.36" version="24.7.6">
  <diagram name="第 1 页" id="cN7nsFnijPlamDQdkUG-">
    <mxGraphModel dx="1687" dy="989" grid="1" gridSize="10" guides="1" tooltips="1" connect="1" arrows="1" fold="1" page="1" pageScale="1" pageWidth="5000" pageHeight="20000" math="0" shadow="0">
      <root>
        <mxCell id="0" />
        <mxCell id="1" parent="0" />
        <mxCell id="KhluZh3JoP7vQR8Mc1Ra-41" value="" style="edgeStyle=none;curved=1;rounded=0;orthogonalLoop=1;jettySize=auto;html=1;fontSize=12;startSize=8;endSize=8;entryX=0;entryY=0.5;entryDx=0;entryDy=0;" parent="1" source="KhluZh3JoP7vQR8Mc1Ra-43" target="KhluZh3JoP7vQR8Mc1Ra-45" edge="1">
          <mxGeometry relative="1" as="geometry" />
        </mxCell>
        <mxCell id="KhluZh3JoP7vQR8Mc1Ra-42" value="" style="edgeStyle=none;curved=1;rounded=0;orthogonalLoop=1;jettySize=auto;html=1;fontSize=12;startSize=8;endSize=8;entryX=0;entryY=0.5;entryDx=0;entryDy=0;" parent="1" source="KhluZh3JoP7vQR8Mc1Ra-43" target="KhluZh3JoP7vQR8Mc1Ra-46" edge="1">
          <mxGeometry relative="1" as="geometry" />
        </mxCell>
        <mxCell id="KhluZh3JoP7vQR8Mc1Ra-43" value="应付单审批" style="rounded=0;whiteSpace=wrap;html=1;" parent="1" vertex="1">
          <mxGeometry x="150" y="1490" width="120" height="60" as="geometry" />
        </mxCell>
        <mxCell id="KhluZh3JoP7vQR8Mc1Ra-44" value="" style="edgeStyle=none;curved=1;rounded=0;orthogonalLoop=1;jettySize=auto;html=1;fontSize=12;startSize=8;endSize=8;entryX=0;entryY=0.5;entryDx=0;entryDy=0;" parent="1" source="KhluZh3JoP7vQR8Mc1Ra-77" target="KhluZh3JoP7vQR8Mc1Ra-60" edge="1">
          <mxGeometry relative="1" as="geometry">
            <mxPoint x="664.9056603773583" y="1420.0943396226417" as="targetPoint" />
          </mxGeometry>
        </mxCell>
        <mxCell id="KhluZh3JoP7vQR8Mc1Ra-78" value="新单据" style="edgeLabel;html=1;align=center;verticalAlign=middle;resizable=0;points=[];fontSize=12;" parent="KhluZh3JoP7vQR8Mc1Ra-44" vertex="1" connectable="0">
          <mxGeometry x="-0.334" y="3" relative="1" as="geometry">
            <mxPoint as="offset" />
          </mxGeometry>
        </mxCell>
        <mxCell id="KhluZh3JoP7vQR8Mc1Ra-76" style="edgeStyle=none;curved=1;rounded=0;orthogonalLoop=1;jettySize=auto;html=1;fontSize=12;startSize=8;endSize=8;entryX=0;entryY=0.5;entryDx=0;entryDy=0;" parent="1" source="KhluZh3JoP7vQR8Mc1Ra-45" target="KhluZh3JoP7vQR8Mc1Ra-77" edge="1">
          <mxGeometry relative="1" as="geometry">
            <mxPoint x="570" y="1120" as="targetPoint" />
          </mxGeometry>
        </mxCell>
        <mxCell id="KhluZh3JoP7vQR8Mc1Ra-45" value="应付单通过" style="rounded=0;whiteSpace=wrap;html=1;" parent="1" vertex="1">
          <mxGeometry x="340" y="1335" width="120" height="60" as="geometry" />
        </mxCell>
        <mxCell id="KhluZh3JoP7vQR8Mc1Ra-125" value="" style="edgeStyle=none;curved=1;rounded=0;orthogonalLoop=1;jettySize=auto;html=1;fontSize=12;startSize=8;endSize=8;" parent="1" source="KhluZh3JoP7vQR8Mc1Ra-46" target="KhluZh3JoP7vQR8Mc1Ra-124" edge="1">
          <mxGeometry relative="1" as="geometry" />
        </mxCell>
        <mxCell id="KhluZh3JoP7vQR8Mc1Ra-46" value="&lt;div&gt;&lt;span style=&quot;background-color: initial;&quot;&gt;应付单提交&lt;/span&gt;&lt;br&gt;&lt;/div&gt;应付单驳回&lt;div&gt;应付单撤销&lt;br&gt;&lt;div&gt;应付单暂存&lt;/div&gt;&lt;div&gt;应付单加签&lt;/div&gt;&lt;/div&gt;" style="rounded=0;whiteSpace=wrap;html=1;" parent="1" vertex="1">
          <mxGeometry x="350" y="1680" width="120" height="90" as="geometry" />
        </mxCell>
        <mxCell id="KhluZh3JoP7vQR8Mc1Ra-71" value="是" style="edgeStyle=none;curved=1;rounded=0;orthogonalLoop=1;jettySize=auto;html=1;fontSize=12;startSize=8;endSize=8;" parent="1" edge="1">
          <mxGeometry relative="1" as="geometry">
            <mxPoint x="720" y="1445" as="sourcePoint" />
            <Array as="points" />
          </mxGeometry>
        </mxCell>
        <mxCell id="KhluZh3JoP7vQR8Mc1Ra-51" value="" style="edgeStyle=none;curved=1;rounded=0;orthogonalLoop=1;jettySize=auto;html=1;fontSize=12;startSize=8;endSize=8;dashed=1;" parent="1" source="KhluZh3JoP7vQR8Mc1Ra-52" target="KhluZh3JoP7vQR8Mc1Ra-54" edge="1">
          <mxGeometry relative="1" as="geometry" />
        </mxCell>
        <mxCell id="KhluZh3JoP7vQR8Mc1Ra-52" value="FSSC初审" style="whiteSpace=wrap;html=1;rounded=0;" parent="1" vertex="1">
          <mxGeometry x="1840" y="1390" width="120" height="60" as="geometry" />
        </mxCell>
        <mxCell id="KhluZh3JoP7vQR8Mc1Ra-53" value="" style="edgeStyle=none;curved=1;rounded=0;orthogonalLoop=1;jettySize=auto;html=1;fontSize=12;startSize=8;endSize=8;entryX=0;entryY=0.5;entryDx=0;entryDy=0;" parent="1" source="KhluZh3JoP7vQR8Mc1Ra-54" target="KhluZh3JoP7vQR8Mc1Ra-55" edge="1">
          <mxGeometry relative="1" as="geometry">
            <mxPoint x="2320" y="1420" as="targetPoint" />
          </mxGeometry>
        </mxCell>
        <mxCell id="2OkvmSdykoSW6WmN8zV1-83" value="" style="edgeStyle=none;shape=connector;curved=1;rounded=0;orthogonalLoop=1;jettySize=auto;html=1;strokeColor=default;align=center;verticalAlign=middle;fontFamily=Helvetica;fontSize=12;fontColor=default;labelBackgroundColor=default;startSize=8;endArrow=classic;endSize=8;" parent="1" source="KhluZh3JoP7vQR8Mc1Ra-54" target="2OkvmSdykoSW6WmN8zV1-82" edge="1">
          <mxGeometry relative="1" as="geometry" />
        </mxCell>
        <mxCell id="KhluZh3JoP7vQR8Mc1Ra-54" value="单据侧记录审批记录" style="whiteSpace=wrap;html=1;rounded=0;fillColor=#ffcc99;strokeColor=#36393d;" parent="1" vertex="1">
          <mxGeometry x="2080" y="1390" width="120" height="60" as="geometry" />
        </mxCell>
        <mxCell id="KhluZh3JoP7vQR8Mc1Ra-120" value="" style="edgeStyle=none;curved=1;rounded=0;orthogonalLoop=1;jettySize=auto;html=1;fontSize=12;startSize=8;endSize=8;" parent="1" source="KhluZh3JoP7vQR8Mc1Ra-55" target="KhluZh3JoP7vQR8Mc1Ra-119" edge="1">
          <mxGeometry relative="1" as="geometry" />
        </mxCell>
        <mxCell id="KhluZh3JoP7vQR8Mc1Ra-55" value="FSSC复审" style="whiteSpace=wrap;html=1;rounded=0;" parent="1" vertex="1">
          <mxGeometry x="2310" y="1390" width="120" height="60" as="geometry" />
        </mxCell>
        <mxCell id="2OkvmSdykoSW6WmN8zV1-76" value="" style="edgeStyle=none;shape=connector;curved=1;rounded=0;orthogonalLoop=1;jettySize=auto;html=1;strokeColor=default;align=center;verticalAlign=middle;fontFamily=Helvetica;fontSize=12;fontColor=default;labelBackgroundColor=default;startSize=8;endArrow=classic;endSize=8;" parent="1" source="KhluZh3JoP7vQR8Mc1Ra-56" target="2OkvmSdykoSW6WmN8zV1-75" edge="1">
          <mxGeometry relative="1" as="geometry" />
        </mxCell>
        <mxCell id="KhluZh3JoP7vQR8Mc1Ra-56" value="发送MQ给FSSC" style="whiteSpace=wrap;html=1;rounded=0;" parent="1" vertex="1">
          <mxGeometry x="1360" y="1390" width="120" height="60" as="geometry" />
        </mxCell>
        <mxCell id="KhluZh3JoP7vQR8Mc1Ra-59" value="" style="edgeStyle=none;curved=1;rounded=0;orthogonalLoop=1;jettySize=auto;html=1;fontSize=12;startSize=8;endSize=8;" parent="1" source="KhluZh3JoP7vQR8Mc1Ra-60" target="KhluZh3JoP7vQR8Mc1Ra-65" edge="1">
          <mxGeometry relative="1" as="geometry" />
        </mxCell>
        <mxCell id="KhluZh3JoP7vQR8Mc1Ra-60" value="倚天rest节点回调" style="rounded=0;whiteSpace=wrap;html=1;fillColor=#ffcc99;strokeColor=#36393d;" parent="1" vertex="1">
          <mxGeometry x="780" y="1390" width="120" height="60" as="geometry" />
        </mxCell>
        <mxCell id="KhluZh3JoP7vQR8Mc1Ra-61" value="" style="edgeStyle=none;curved=1;rounded=0;orthogonalLoop=1;jettySize=auto;html=1;fontSize=12;startSize=8;endSize=8;" parent="1" source="KhluZh3JoP7vQR8Mc1Ra-65" target="KhluZh3JoP7vQR8Mc1Ra-66" edge="1">
          <mxGeometry relative="1" as="geometry" />
        </mxCell>
        <mxCell id="KhluZh3JoP7vQR8Mc1Ra-62" value="否" style="edgeLabel;html=1;align=center;verticalAlign=middle;resizable=0;points=[];fontSize=12;" parent="KhluZh3JoP7vQR8Mc1Ra-61" vertex="1" connectable="0">
          <mxGeometry x="-0.2923" y="-2" relative="1" as="geometry">
            <mxPoint as="offset" />
          </mxGeometry>
        </mxCell>
        <mxCell id="KhluZh3JoP7vQR8Mc1Ra-63" style="edgeStyle=none;curved=1;rounded=0;orthogonalLoop=1;jettySize=auto;html=1;fontSize=12;startSize=8;endSize=8;" parent="1" source="KhluZh3JoP7vQR8Mc1Ra-65" target="KhluZh3JoP7vQR8Mc1Ra-56" edge="1">
          <mxGeometry relative="1" as="geometry" />
        </mxCell>
        <mxCell id="KhluZh3JoP7vQR8Mc1Ra-64" value="是" style="edgeLabel;html=1;align=center;verticalAlign=middle;resizable=0;points=[];fontSize=12;" parent="KhluZh3JoP7vQR8Mc1Ra-63" vertex="1" connectable="0">
          <mxGeometry x="-0.0327" relative="1" as="geometry">
            <mxPoint as="offset" />
          </mxGeometry>
        </mxCell>
        <mxCell id="KhluZh3JoP7vQR8Mc1Ra-65" value="判断倚天审批流是否到达FSSC节点&lt;div&gt;（&lt;font style=&quot;font-size: 13px;&quot; color=&quot;#ff3333&quot;&gt;循环3次&lt;/font&gt;）&lt;/div&gt;" style="rhombus;whiteSpace=wrap;html=1;rounded=0;fillColor=#ffcc99;strokeColor=#36393d;" parent="1" vertex="1">
          <mxGeometry x="1080" y="1360" width="120" height="120" as="geometry" />
        </mxCell>
        <mxCell id="KhluZh3JoP7vQR8Mc1Ra-66" value="发DC告警，PM补偿接口处理" style="whiteSpace=wrap;html=1;rounded=0;fillColor=#ffcc99;strokeColor=#36393d;" parent="1" vertex="1">
          <mxGeometry x="1080" y="1545" width="120" height="60" as="geometry" />
        </mxCell>
        <mxCell id="KhluZh3JoP7vQR8Mc1Ra-67" style="edgeStyle=none;curved=1;rounded=0;orthogonalLoop=1;jettySize=auto;html=1;fontSize=12;startSize=8;endSize=8;dashed=1;entryX=0.5;entryY=1;entryDx=0;entryDy=0;" parent="1" source="KhluZh3JoP7vQR8Mc1Ra-66" target="KhluZh3JoP7vQR8Mc1Ra-60" edge="1">
          <mxGeometry relative="1" as="geometry">
            <mxPoint x="830" y="1480" as="targetPoint" />
          </mxGeometry>
        </mxCell>
        <mxCell id="KhluZh3JoP7vQR8Mc1Ra-68" value="重新触发rest回调" style="edgeLabel;html=1;align=center;verticalAlign=middle;resizable=0;points=[];fontSize=12;" parent="KhluZh3JoP7vQR8Mc1Ra-67" vertex="1" connectable="0">
          <mxGeometry x="-0.0466" y="-1" relative="1" as="geometry">
            <mxPoint as="offset" />
          </mxGeometry>
        </mxCell>
        <mxCell id="KhluZh3JoP7vQR8Mc1Ra-79" style="edgeStyle=none;curved=1;rounded=0;orthogonalLoop=1;jettySize=auto;html=1;fontSize=12;startSize=8;endSize=8;entryX=0;entryY=0.5;entryDx=0;entryDy=0;" parent="1" source="KhluZh3JoP7vQR8Mc1Ra-77" target="KhluZh3JoP7vQR8Mc1Ra-99" edge="1">
          <mxGeometry relative="1" as="geometry">
            <mxPoint x="750" y="1110" as="targetPoint" />
          </mxGeometry>
        </mxCell>
        <mxCell id="KhluZh3JoP7vQR8Mc1Ra-80" value="老单据" style="edgeLabel;html=1;align=center;verticalAlign=middle;resizable=0;points=[];fontSize=12;" parent="KhluZh3JoP7vQR8Mc1Ra-79" vertex="1" connectable="0">
          <mxGeometry x="-0.269" y="-1" relative="1" as="geometry">
            <mxPoint as="offset" />
          </mxGeometry>
        </mxCell>
        <mxCell id="KhluZh3JoP7vQR8Mc1Ra-77" value="新老单据" style="rhombus;whiteSpace=wrap;html=1;" parent="1" vertex="1">
          <mxGeometry x="520" y="1160" width="120" height="120" as="geometry" />
        </mxCell>
        <mxCell id="KhluZh3JoP7vQR8Mc1Ra-83" value="" style="edgeStyle=none;curved=1;rounded=0;orthogonalLoop=1;jettySize=auto;html=1;fontSize=12;startSize=8;endSize=8;dashed=1;" parent="1" source="KhluZh3JoP7vQR8Mc1Ra-84" target="KhluZh3JoP7vQR8Mc1Ra-86" edge="1">
          <mxGeometry relative="1" as="geometry" />
        </mxCell>
        <mxCell id="KhluZh3JoP7vQR8Mc1Ra-84" value="FSSC初审" style="whiteSpace=wrap;html=1;rounded=0;" parent="1" vertex="1">
          <mxGeometry x="1350" y="1075" width="120" height="60" as="geometry" />
        </mxCell>
        <mxCell id="KhluZh3JoP7vQR8Mc1Ra-112" value="" style="edgeStyle=none;curved=1;rounded=0;orthogonalLoop=1;jettySize=auto;html=1;fontSize=12;startSize=8;endSize=8;" parent="1" source="KhluZh3JoP7vQR8Mc1Ra-86" target="KhluZh3JoP7vQR8Mc1Ra-111" edge="1">
          <mxGeometry relative="1" as="geometry" />
        </mxCell>
        <mxCell id="KhluZh3JoP7vQR8Mc1Ra-86" value="调用base审批，base记录审批记录" style="whiteSpace=wrap;html=1;rounded=0;fillColor=#cce5ff;strokeColor=#36393d;" parent="1" vertex="1">
          <mxGeometry x="1600" y="1075" width="120" height="60" as="geometry" />
        </mxCell>
        <mxCell id="KhluZh3JoP7vQR8Mc1Ra-102" value="" style="edgeStyle=none;curved=1;rounded=0;orthogonalLoop=1;jettySize=auto;html=1;fontSize=12;startSize=8;endSize=8;" parent="1" source="KhluZh3JoP7vQR8Mc1Ra-99" target="KhluZh3JoP7vQR8Mc1Ra-101" edge="1">
          <mxGeometry relative="1" as="geometry" />
        </mxCell>
        <mxCell id="KhluZh3JoP7vQR8Mc1Ra-99" value="发送MQ给FSSC" style="whiteSpace=wrap;html=1;rounded=0;" parent="1" vertex="1">
          <mxGeometry x="780" y="1075" width="120" height="60" as="geometry" />
        </mxCell>
        <mxCell id="KhluZh3JoP7vQR8Mc1Ra-103" style="edgeStyle=none;curved=1;rounded=0;orthogonalLoop=1;jettySize=auto;html=1;fontSize=12;startSize=8;endSize=8;dashed=1;" parent="1" source="KhluZh3JoP7vQR8Mc1Ra-101" target="KhluZh3JoP7vQR8Mc1Ra-84" edge="1">
          <mxGeometry relative="1" as="geometry" />
        </mxCell>
        <mxCell id="KhluZh3JoP7vQR8Mc1Ra-104" value="无" style="edgeLabel;html=1;align=center;verticalAlign=middle;resizable=0;points=[];fontSize=12;" parent="KhluZh3JoP7vQR8Mc1Ra-103" vertex="1" connectable="0">
          <mxGeometry x="-0.1889" y="3" relative="1" as="geometry">
            <mxPoint as="offset" />
          </mxGeometry>
        </mxCell>
        <mxCell id="KhluZh3JoP7vQR8Mc1Ra-107" value="" style="edgeStyle=none;curved=1;rounded=0;orthogonalLoop=1;jettySize=auto;html=1;fontSize=12;startSize=8;endSize=8;dashed=1;" parent="1" source="KhluZh3JoP7vQR8Mc1Ra-101" target="KhluZh3JoP7vQR8Mc1Ra-106" edge="1">
          <mxGeometry relative="1" as="geometry" />
        </mxCell>
        <mxCell id="KhluZh3JoP7vQR8Mc1Ra-108" value="有" style="edgeLabel;html=1;align=center;verticalAlign=middle;resizable=0;points=[];fontSize=12;" parent="KhluZh3JoP7vQR8Mc1Ra-107" vertex="1" connectable="0">
          <mxGeometry x="0.0421" y="1" relative="1" as="geometry">
            <mxPoint as="offset" />
          </mxGeometry>
        </mxCell>
        <mxCell id="KhluZh3JoP7vQR8Mc1Ra-101" value="有无线下纸质材料" style="rhombus;whiteSpace=wrap;html=1;rounded=0;" parent="1" vertex="1">
          <mxGeometry x="1090" y="1065" width="80" height="80" as="geometry" />
        </mxCell>
        <mxCell id="KhluZh3JoP7vQR8Mc1Ra-106" value="FSSC收单" style="whiteSpace=wrap;html=1;rounded=0;" parent="1" vertex="1">
          <mxGeometry x="1350" y="900" width="120" height="60" as="geometry" />
        </mxCell>
        <mxCell id="KhluZh3JoP7vQR8Mc1Ra-114" value="" style="edgeStyle=none;curved=1;rounded=0;orthogonalLoop=1;jettySize=auto;html=1;fontSize=12;startSize=8;endSize=8;" parent="1" source="KhluZh3JoP7vQR8Mc1Ra-111" target="KhluZh3JoP7vQR8Mc1Ra-113" edge="1">
          <mxGeometry relative="1" as="geometry" />
        </mxCell>
        <mxCell id="KhluZh3JoP7vQR8Mc1Ra-111" value="FSSC复审" style="whiteSpace=wrap;html=1;rounded=0;" parent="1" vertex="1">
          <mxGeometry x="1840" y="1075" width="120" height="60" as="geometry" />
        </mxCell>
        <mxCell id="KhluZh3JoP7vQR8Mc1Ra-116" value="" style="edgeStyle=none;curved=1;rounded=0;orthogonalLoop=1;jettySize=auto;html=1;fontSize=12;startSize=8;endSize=8;" parent="1" source="KhluZh3JoP7vQR8Mc1Ra-113" target="KhluZh3JoP7vQR8Mc1Ra-115" edge="1">
          <mxGeometry relative="1" as="geometry" />
        </mxCell>
        <mxCell id="KhluZh3JoP7vQR8Mc1Ra-113" value="调用base审批，base调用审批通过" style="whiteSpace=wrap;html=1;rounded=0;fillColor=#cce5ff;strokeColor=#36393d;" parent="1" vertex="1">
          <mxGeometry x="2080" y="1075" width="120" height="60" as="geometry" />
        </mxCell>
        <mxCell id="KhluZh3JoP7vQR8Mc1Ra-118" value="" style="edgeStyle=none;curved=1;rounded=0;orthogonalLoop=1;jettySize=auto;html=1;fontSize=12;startSize=8;endSize=8;" parent="1" source="KhluZh3JoP7vQR8Mc1Ra-115" target="KhluZh3JoP7vQR8Mc1Ra-117" edge="1">
          <mxGeometry relative="1" as="geometry" />
        </mxCell>
        <mxCell id="KhluZh3JoP7vQR8Mc1Ra-115" value="更新单据状态为待付款" style="whiteSpace=wrap;html=1;rounded=0;" parent="1" vertex="1">
          <mxGeometry x="2320" y="1075" width="120" height="60" as="geometry" />
        </mxCell>
        <mxCell id="KhluZh3JoP7vQR8Mc1Ra-123" style="edgeStyle=none;curved=1;rounded=0;orthogonalLoop=1;jettySize=auto;html=1;fontSize=12;startSize=8;endSize=8;entryX=1.017;entryY=0.65;entryDx=0;entryDy=0;entryPerimeter=0;dashed=1;" parent="1" source="KhluZh3JoP7vQR8Mc1Ra-117" target="KhluZh3JoP7vQR8Mc1Ra-106" edge="1">
          <mxGeometry relative="1" as="geometry">
            <mxPoint x="1860" y="940" as="targetPoint" />
          </mxGeometry>
        </mxCell>
        <mxCell id="KhluZh3JoP7vQR8Mc1Ra-117" value="审批流程结束" style="whiteSpace=wrap;html=1;rounded=0;" parent="1" vertex="1">
          <mxGeometry x="2640" y="1075" width="120" height="60" as="geometry" />
        </mxCell>
        <mxCell id="KhluZh3JoP7vQR8Mc1Ra-122" value="" style="edgeStyle=none;curved=1;rounded=0;orthogonalLoop=1;jettySize=auto;html=1;fontSize=12;startSize=8;endSize=8;entryX=0;entryY=0.5;entryDx=0;entryDy=0;" parent="1" source="KhluZh3JoP7vQR8Mc1Ra-119" target="KhluZh3JoP7vQR8Mc1Ra-121" edge="1">
          <mxGeometry relative="1" as="geometry">
            <mxPoint x="2790" y="1420" as="targetPoint" />
          </mxGeometry>
        </mxCell>
        <mxCell id="KhluZh3JoP7vQR8Mc1Ra-119" value="调用base新审批流" style="whiteSpace=wrap;html=1;rounded=0;fillColor=#ffcc99;strokeColor=#36393d;" parent="1" vertex="1">
          <mxGeometry x="2550" y="1390" width="120" height="60" as="geometry" />
        </mxCell>
        <mxCell id="2OkvmSdykoSW6WmN8zV1-81" style="edgeStyle=none;shape=connector;curved=1;rounded=0;orthogonalLoop=1;jettySize=auto;html=1;entryX=1;entryY=0.5;entryDx=0;entryDy=0;strokeColor=default;align=center;verticalAlign=middle;fontFamily=Helvetica;fontSize=12;fontColor=default;labelBackgroundColor=default;startSize=8;endArrow=classic;endSize=8;dashed=1;exitX=0.327;exitY=-0.067;exitDx=0;exitDy=0;exitPerimeter=0;" parent="1" source="KhluZh3JoP7vQR8Mc1Ra-121" target="2OkvmSdykoSW6WmN8zV1-80" edge="1">
          <mxGeometry relative="1" as="geometry">
            <mxPoint x="2790" y="1432.1348314606744" as="sourcePoint" />
          </mxGeometry>
        </mxCell>
        <mxCell id="2OkvmSdykoSW6WmN8zV1-87" value="" style="edgeStyle=none;shape=connector;curved=1;rounded=0;orthogonalLoop=1;jettySize=auto;html=1;strokeColor=default;align=center;verticalAlign=middle;fontFamily=Helvetica;fontSize=12;fontColor=default;labelBackgroundColor=default;startSize=8;endArrow=classic;endSize=8;" parent="1" source="KhluZh3JoP7vQR8Mc1Ra-121" target="2OkvmSdykoSW6WmN8zV1-86" edge="1">
          <mxGeometry relative="1" as="geometry" />
        </mxCell>
        <mxCell id="KhluZh3JoP7vQR8Mc1Ra-121" value="单据侧记录审批记录" style="whiteSpace=wrap;html=1;rounded=0;fillColor=#ffcc99;strokeColor=#36393d;" parent="1" vertex="1">
          <mxGeometry x="2790" y="1390" width="120" height="60" as="geometry" />
        </mxCell>
        <mxCell id="KhluZh3JoP7vQR8Mc1Ra-127" value="" style="edgeStyle=none;curved=1;rounded=0;orthogonalLoop=1;jettySize=auto;html=1;fontSize=12;startSize=8;endSize=8;" parent="1" source="KhluZh3JoP7vQR8Mc1Ra-124" target="KhluZh3JoP7vQR8Mc1Ra-126" edge="1">
          <mxGeometry relative="1" as="geometry" />
        </mxCell>
        <mxCell id="KhluZh3JoP7vQR8Mc1Ra-124" value="&lt;div&gt;&lt;span style=&quot;background-color: initial;&quot;&gt;调用base审批流方法改为新审批流方法&lt;/span&gt;&lt;br&gt;&lt;/div&gt;&lt;div&gt;&lt;div&gt;&lt;br&gt;&lt;/div&gt;&lt;/div&gt;" style="rounded=0;whiteSpace=wrap;html=1;align=center;" parent="1" vertex="1">
          <mxGeometry x="590" y="1690" width="120" height="70" as="geometry" />
        </mxCell>
        <mxCell id="KhluZh3JoP7vQR8Mc1Ra-126" value="&lt;div&gt;修改响应判断逻辑&lt;/div&gt;&lt;div&gt;&lt;div&gt;&lt;br&gt;&lt;/div&gt;&lt;/div&gt;" style="rounded=0;whiteSpace=wrap;html=1;" parent="1" vertex="1">
          <mxGeometry x="830" y="1690" width="120" height="70" as="geometry" />
        </mxCell>
        <mxCell id="KhluZh3JoP7vQR8Mc1Ra-133" value="" style="edgeStyle=none;curved=1;rounded=0;orthogonalLoop=1;jettySize=auto;html=1;fontSize=12;startSize=8;endSize=8;" parent="1" source="KhluZh3JoP7vQR8Mc1Ra-128" target="KhluZh3JoP7vQR8Mc1Ra-132" edge="1">
          <mxGeometry relative="1" as="geometry" />
        </mxCell>
        <mxCell id="KhluZh3JoP7vQR8Mc1Ra-128" value="FSSC制单" style="rounded=0;whiteSpace=wrap;html=1;" parent="1" vertex="1">
          <mxGeometry x="150" y="2020" width="120" height="60" as="geometry" />
        </mxCell>
        <mxCell id="KhluZh3JoP7vQR8Mc1Ra-146" value="" style="edgeStyle=none;curved=1;rounded=0;orthogonalLoop=1;jettySize=auto;html=1;fontSize=12;startSize=8;endSize=8;" parent="1" source="KhluZh3JoP7vQR8Mc1Ra-129" target="KhluZh3JoP7vQR8Mc1Ra-145" edge="1">
          <mxGeometry relative="1" as="geometry" />
        </mxCell>
        <mxCell id="KhluZh3JoP7vQR8Mc1Ra-129" value="保存应付单-单据状态为待付款" style="rounded=0;whiteSpace=wrap;html=1;" parent="1" vertex="1">
          <mxGeometry x="570" y="1930" width="120" height="60" as="geometry" />
        </mxCell>
        <mxCell id="KhluZh3JoP7vQR8Mc1Ra-134" style="edgeStyle=none;curved=1;rounded=0;orthogonalLoop=1;jettySize=auto;html=1;entryX=0;entryY=0.5;entryDx=0;entryDy=0;fontSize=12;startSize=8;endSize=8;" parent="1" source="KhluZh3JoP7vQR8Mc1Ra-132" target="KhluZh3JoP7vQR8Mc1Ra-129" edge="1">
          <mxGeometry relative="1" as="geometry" />
        </mxCell>
        <mxCell id="KhluZh3JoP7vQR8Mc1Ra-144" value="老" style="edgeLabel;html=1;align=center;verticalAlign=middle;resizable=0;points=[];fontSize=12;" parent="KhluZh3JoP7vQR8Mc1Ra-134" vertex="1" connectable="0">
          <mxGeometry x="0.0711" relative="1" as="geometry">
            <mxPoint as="offset" />
          </mxGeometry>
        </mxCell>
        <mxCell id="KhluZh3JoP7vQR8Mc1Ra-138" style="edgeStyle=none;curved=1;rounded=0;orthogonalLoop=1;jettySize=auto;html=1;entryX=0;entryY=0.5;entryDx=0;entryDy=0;fontSize=12;startSize=8;endSize=8;" parent="1" source="KhluZh3JoP7vQR8Mc1Ra-132" target="KhluZh3JoP7vQR8Mc1Ra-136" edge="1">
          <mxGeometry relative="1" as="geometry" />
        </mxCell>
        <mxCell id="KhluZh3JoP7vQR8Mc1Ra-141" value="新" style="edgeLabel;html=1;align=center;verticalAlign=middle;resizable=0;points=[];fontSize=12;" parent="KhluZh3JoP7vQR8Mc1Ra-138" vertex="1" connectable="0">
          <mxGeometry x="-0.1661" relative="1" as="geometry">
            <mxPoint as="offset" />
          </mxGeometry>
        </mxCell>
        <mxCell id="KhluZh3JoP7vQR8Mc1Ra-132" value="新老单据" style="rhombus;whiteSpace=wrap;html=1;rounded=0;" parent="1" vertex="1">
          <mxGeometry x="410" y="2010" width="80" height="80" as="geometry" />
        </mxCell>
        <mxCell id="KhluZh3JoP7vQR8Mc1Ra-152" value="" style="edgeStyle=none;curved=1;rounded=0;orthogonalLoop=1;jettySize=auto;html=1;fontSize=12;startSize=8;endSize=8;" parent="1" source="KhluZh3JoP7vQR8Mc1Ra-136" target="KhluZh3JoP7vQR8Mc1Ra-151" edge="1">
          <mxGeometry relative="1" as="geometry" />
        </mxCell>
        <mxCell id="KhluZh3JoP7vQR8Mc1Ra-136" value="保存应付单-单据状态为待付款" style="whiteSpace=wrap;html=1;rounded=0;" parent="1" vertex="1">
          <mxGeometry x="570" y="2120" width="120" height="60" as="geometry" />
        </mxCell>
        <mxCell id="KhluZh3JoP7vQR8Mc1Ra-148" value="" style="edgeStyle=none;curved=1;rounded=0;orthogonalLoop=1;jettySize=auto;html=1;fontSize=12;startSize=8;endSize=8;" parent="1" source="KhluZh3JoP7vQR8Mc1Ra-145" target="KhluZh3JoP7vQR8Mc1Ra-147" edge="1">
          <mxGeometry relative="1" as="geometry" />
        </mxCell>
        <mxCell id="KhluZh3JoP7vQR8Mc1Ra-145" value="调用base通过审批接口" style="rounded=0;whiteSpace=wrap;html=1;fillColor=#f8cecc;strokeColor=#b85450;" parent="1" vertex="1">
          <mxGeometry x="810" y="1930" width="120" height="60" as="geometry" />
        </mxCell>
        <mxCell id="KhluZh3JoP7vQR8Mc1Ra-150" value="" style="edgeStyle=none;curved=1;rounded=0;orthogonalLoop=1;jettySize=auto;html=1;fontSize=12;startSize=8;endSize=8;" parent="1" source="KhluZh3JoP7vQR8Mc1Ra-147" target="KhluZh3JoP7vQR8Mc1Ra-149" edge="1">
          <mxGeometry relative="1" as="geometry" />
        </mxCell>
        <mxCell id="KhluZh3JoP7vQR8Mc1Ra-147" value="base侧调用老审批流并记录审批记录" style="rounded=0;whiteSpace=wrap;html=1;fillColor=#f8cecc;strokeColor=#b85450;" parent="1" vertex="1">
          <mxGeometry x="1050" y="1930" width="120" height="60" as="geometry" />
        </mxCell>
        <mxCell id="KhluZh3JoP7vQR8Mc1Ra-149" value="审批成功，更新单据状态审批完成时间" style="whiteSpace=wrap;html=1;rounded=0;" parent="1" vertex="1">
          <mxGeometry x="1290" y="1930" width="120" height="60" as="geometry" />
        </mxCell>
        <mxCell id="KhluZh3JoP7vQR8Mc1Ra-158" value="" style="edgeStyle=none;curved=1;rounded=0;orthogonalLoop=1;jettySize=auto;html=1;fontSize=12;startSize=8;endSize=8;" parent="1" source="KhluZh3JoP7vQR8Mc1Ra-151" target="KhluZh3JoP7vQR8Mc1Ra-157" edge="1">
          <mxGeometry relative="1" as="geometry" />
        </mxCell>
        <mxCell id="KhluZh3JoP7vQR8Mc1Ra-151" value="调用base通过新审批流接口" style="whiteSpace=wrap;html=1;rounded=0;fillColor=#fff2cc;strokeColor=#d6b656;" parent="1" vertex="1">
          <mxGeometry x="810" y="2120" width="120" height="60" as="geometry" />
        </mxCell>
        <mxCell id="KhluZh3JoP7vQR8Mc1Ra-156" value="" style="edgeStyle=none;curved=1;rounded=0;orthogonalLoop=1;jettySize=auto;html=1;fontSize=12;startSize=8;endSize=8;" parent="1" source="KhluZh3JoP7vQR8Mc1Ra-153" target="KhluZh3JoP7vQR8Mc1Ra-155" edge="1">
          <mxGeometry relative="1" as="geometry" />
        </mxCell>
        <mxCell id="KhluZh3JoP7vQR8Mc1Ra-153" value="单据侧记录审批记录" style="whiteSpace=wrap;html=1;rounded=0;fillColor=#fff2cc;strokeColor=#d6b656;" parent="1" vertex="1">
          <mxGeometry x="1290" y="2120" width="120" height="60" as="geometry" />
        </mxCell>
        <mxCell id="KhluZh3JoP7vQR8Mc1Ra-155" value="更新单据状态审批完成时间" style="whiteSpace=wrap;html=1;rounded=0;" parent="1" vertex="1">
          <mxGeometry x="1530" y="2120" width="120" height="60" as="geometry" />
        </mxCell>
        <mxCell id="KhluZh3JoP7vQR8Mc1Ra-159" style="edgeStyle=none;curved=1;rounded=0;orthogonalLoop=1;jettySize=auto;html=1;entryX=0;entryY=0.5;entryDx=0;entryDy=0;fontSize=12;startSize=8;endSize=8;" parent="1" source="KhluZh3JoP7vQR8Mc1Ra-157" target="KhluZh3JoP7vQR8Mc1Ra-153" edge="1">
          <mxGeometry relative="1" as="geometry" />
        </mxCell>
        <mxCell id="KhluZh3JoP7vQR8Mc1Ra-160" value="成功" style="edgeLabel;html=1;align=center;verticalAlign=middle;resizable=0;points=[];fontSize=12;" parent="KhluZh3JoP7vQR8Mc1Ra-159" vertex="1" connectable="0">
          <mxGeometry x="-0.1" relative="1" as="geometry">
            <mxPoint as="offset" />
          </mxGeometry>
        </mxCell>
        <mxCell id="KhluZh3JoP7vQR8Mc1Ra-162" value="" style="edgeStyle=none;curved=1;rounded=0;orthogonalLoop=1;jettySize=auto;html=1;fontSize=12;startSize=8;endSize=8;" parent="1" source="KhluZh3JoP7vQR8Mc1Ra-157" target="KhluZh3JoP7vQR8Mc1Ra-161" edge="1">
          <mxGeometry relative="1" as="geometry" />
        </mxCell>
        <mxCell id="KhluZh3JoP7vQR8Mc1Ra-163" value="失败" style="edgeLabel;html=1;align=center;verticalAlign=middle;resizable=0;points=[];fontSize=12;" parent="KhluZh3JoP7vQR8Mc1Ra-162" vertex="1" connectable="0">
          <mxGeometry x="-0.3385" relative="1" as="geometry">
            <mxPoint as="offset" />
          </mxGeometry>
        </mxCell>
        <mxCell id="KhluZh3JoP7vQR8Mc1Ra-157" value="是否成功" style="rhombus;whiteSpace=wrap;html=1;rounded=0;" parent="1" vertex="1">
          <mxGeometry x="1070" y="2110" width="80" height="80" as="geometry" />
        </mxCell>
        <mxCell id="KhluZh3JoP7vQR8Mc1Ra-161" value="补偿接口？" style="whiteSpace=wrap;html=1;rounded=0;" parent="1" vertex="1">
          <mxGeometry x="1050" y="2320" width="120" height="60" as="geometry" />
        </mxCell>
        <mxCell id="2OkvmSdykoSW6WmN8zV1-4" value="" style="edgeStyle=orthogonalEdgeStyle;rounded=0;orthogonalLoop=1;jettySize=auto;html=1;" parent="1" source="KhluZh3JoP7vQR8Mc1Ra-164" target="2OkvmSdykoSW6WmN8zV1-3" edge="1">
          <mxGeometry relative="1" as="geometry" />
        </mxCell>
        <mxCell id="KhluZh3JoP7vQR8Mc1Ra-164" value="协同审批通过" style="rounded=0;whiteSpace=wrap;html=1;" parent="1" vertex="1">
          <mxGeometry x="100" y="2810" width="120" height="60" as="geometry" />
        </mxCell>
        <mxCell id="2OkvmSdykoSW6WmN8zV1-12" style="edgeStyle=none;shape=connector;curved=1;rounded=0;orthogonalLoop=1;jettySize=auto;html=1;entryX=0;entryY=0.5;entryDx=0;entryDy=0;strokeColor=default;align=center;verticalAlign=middle;fontFamily=Helvetica;fontSize=12;fontColor=default;labelBackgroundColor=default;startSize=8;endArrow=classic;endSize=8;" parent="1" source="2OkvmSdykoSW6WmN8zV1-3" target="2OkvmSdykoSW6WmN8zV1-7" edge="1">
          <mxGeometry relative="1" as="geometry" />
        </mxCell>
        <mxCell id="2OkvmSdykoSW6WmN8zV1-13" value="老" style="edgeLabel;html=1;align=center;verticalAlign=middle;resizable=0;points=[];fontFamily=Helvetica;fontSize=12;fontColor=default;labelBackgroundColor=default;" parent="2OkvmSdykoSW6WmN8zV1-12" vertex="1" connectable="0">
          <mxGeometry x="0.0418" y="-1" relative="1" as="geometry">
            <mxPoint as="offset" />
          </mxGeometry>
        </mxCell>
        <mxCell id="2OkvmSdykoSW6WmN8zV1-3" value="新老单据" style="rhombus;whiteSpace=wrap;html=1;rounded=0;" parent="1" vertex="1">
          <mxGeometry x="360" y="2800" width="80" height="80" as="geometry" />
        </mxCell>
        <mxCell id="2OkvmSdykoSW6WmN8zV1-17" value="" style="edgeStyle=none;shape=connector;curved=1;rounded=0;orthogonalLoop=1;jettySize=auto;html=1;strokeColor=default;align=center;verticalAlign=middle;fontFamily=Helvetica;fontSize=12;fontColor=default;labelBackgroundColor=default;startSize=8;endArrow=classic;endSize=8;entryX=0;entryY=0.5;entryDx=0;entryDy=0;" parent="1" source="2OkvmSdykoSW6WmN8zV1-7" target="2OkvmSdykoSW6WmN8zV1-16" edge="1">
          <mxGeometry relative="1" as="geometry" />
        </mxCell>
        <mxCell id="2OkvmSdykoSW6WmN8zV1-7" value="调用gr2p查询发票" style="rounded=0;whiteSpace=wrap;html=1;" parent="1" vertex="1">
          <mxGeometry x="520" y="2660" width="120" height="60" as="geometry" />
        </mxCell>
        <mxCell id="2OkvmSdykoSW6WmN8zV1-21" value="" style="edgeStyle=none;shape=connector;curved=1;rounded=0;orthogonalLoop=1;jettySize=auto;html=1;strokeColor=default;align=center;verticalAlign=middle;fontFamily=Helvetica;fontSize=12;fontColor=default;labelBackgroundColor=default;startSize=8;endArrow=classic;endSize=8;exitX=1;exitY=0.5;exitDx=0;exitDy=0;" parent="1" source="2OkvmSdykoSW6WmN8zV1-16" target="2OkvmSdykoSW6WmN8zV1-20" edge="1">
          <mxGeometry relative="1" as="geometry" />
        </mxCell>
        <mxCell id="2OkvmSdykoSW6WmN8zV1-23" value="无" style="edgeLabel;html=1;align=center;verticalAlign=middle;resizable=0;points=[];fontFamily=Helvetica;fontSize=12;fontColor=default;labelBackgroundColor=default;" parent="2OkvmSdykoSW6WmN8zV1-21" vertex="1" connectable="0">
          <mxGeometry x="-0.088" y="-1" relative="1" as="geometry">
            <mxPoint as="offset" />
          </mxGeometry>
        </mxCell>
        <mxCell id="2OkvmSdykoSW6WmN8zV1-44" value="" style="edgeStyle=none;shape=connector;curved=1;rounded=0;orthogonalLoop=1;jettySize=auto;html=1;strokeColor=default;align=center;verticalAlign=middle;fontFamily=Helvetica;fontSize=12;fontColor=default;labelBackgroundColor=default;startSize=8;endArrow=classic;endSize=8;" parent="1" source="2OkvmSdykoSW6WmN8zV1-16" target="2OkvmSdykoSW6WmN8zV1-43" edge="1">
          <mxGeometry relative="1" as="geometry" />
        </mxCell>
        <mxCell id="2OkvmSdykoSW6WmN8zV1-48" value="有" style="edgeLabel;html=1;align=center;verticalAlign=middle;resizable=0;points=[];fontFamily=Helvetica;fontSize=12;fontColor=default;labelBackgroundColor=default;" parent="2OkvmSdykoSW6WmN8zV1-44" vertex="1" connectable="0">
          <mxGeometry x="-0.1122" relative="1" as="geometry">
            <mxPoint as="offset" />
          </mxGeometry>
        </mxCell>
        <mxCell id="2OkvmSdykoSW6WmN8zV1-16" value="判断有无线下纸质材料" style="rhombus;whiteSpace=wrap;html=1;rounded=0;" parent="1" vertex="1">
          <mxGeometry x="790" y="2637.5" width="110" height="105" as="geometry" />
        </mxCell>
        <mxCell id="2OkvmSdykoSW6WmN8zV1-25" value="" style="edgeStyle=none;shape=connector;curved=1;rounded=0;orthogonalLoop=1;jettySize=auto;html=1;strokeColor=default;align=center;verticalAlign=middle;fontFamily=Helvetica;fontSize=12;fontColor=default;labelBackgroundColor=default;startSize=8;endArrow=classic;endSize=8;" parent="1" source="2OkvmSdykoSW6WmN8zV1-20" target="2OkvmSdykoSW6WmN8zV1-24" edge="1">
          <mxGeometry relative="1" as="geometry" />
        </mxCell>
        <mxCell id="2OkvmSdykoSW6WmN8zV1-20" value="调用base查询审批记录" style="whiteSpace=wrap;html=1;rounded=0;fillColor=#d5e8d4;strokeColor=#82b366;" parent="1" vertex="1">
          <mxGeometry x="995" y="2660" width="120" height="60" as="geometry" />
        </mxCell>
        <mxCell id="2OkvmSdykoSW6WmN8zV1-29" value="" style="edgeStyle=none;shape=connector;curved=1;rounded=0;orthogonalLoop=1;jettySize=auto;html=1;strokeColor=default;align=center;verticalAlign=middle;fontFamily=Helvetica;fontSize=12;fontColor=default;labelBackgroundColor=default;startSize=8;endArrow=classic;endSize=8;" parent="1" source="2OkvmSdykoSW6WmN8zV1-24" target="2OkvmSdykoSW6WmN8zV1-28" edge="1">
          <mxGeometry relative="1" as="geometry" />
        </mxCell>
        <mxCell id="2OkvmSdykoSW6WmN8zV1-31" value="是" style="edgeLabel;html=1;align=center;verticalAlign=middle;resizable=0;points=[];fontFamily=Helvetica;fontSize=12;fontColor=default;labelBackgroundColor=default;" parent="2OkvmSdykoSW6WmN8zV1-29" vertex="1" connectable="0">
          <mxGeometry x="-0.2714" y="-1" relative="1" as="geometry">
            <mxPoint as="offset" />
          </mxGeometry>
        </mxCell>
        <mxCell id="2OkvmSdykoSW6WmN8zV1-41" value="" style="edgeStyle=none;shape=connector;curved=1;rounded=0;orthogonalLoop=1;jettySize=auto;html=1;strokeColor=default;align=center;verticalAlign=middle;fontFamily=Helvetica;fontSize=12;fontColor=default;labelBackgroundColor=default;startSize=8;endArrow=classic;endSize=8;entryX=0.425;entryY=0.983;entryDx=0;entryDy=0;entryPerimeter=0;" parent="1" source="2OkvmSdykoSW6WmN8zV1-24" target="2OkvmSdykoSW6WmN8zV1-45" edge="1">
          <mxGeometry relative="1" as="geometry">
            <mxPoint x="1282.5" y="2542.5" as="targetPoint" />
          </mxGeometry>
        </mxCell>
        <mxCell id="2OkvmSdykoSW6WmN8zV1-42" value="否" style="edgeLabel;html=1;align=center;verticalAlign=middle;resizable=0;points=[];fontFamily=Helvetica;fontSize=12;fontColor=default;labelBackgroundColor=default;" parent="2OkvmSdykoSW6WmN8zV1-41" vertex="1" connectable="0">
          <mxGeometry x="-0.043" y="1" relative="1" as="geometry">
            <mxPoint x="1" as="offset" />
          </mxGeometry>
        </mxCell>
        <mxCell id="2OkvmSdykoSW6WmN8zV1-24" value="判断当前节点是否为&lt;div&gt;供应商协同结算组&lt;/div&gt;" style="rhombus;whiteSpace=wrap;html=1;rounded=0;fillColor=#d5e8d4;strokeColor=#82b366;" parent="1" vertex="1">
          <mxGeometry x="1220" y="2641.25" width="125" height="97.5" as="geometry" />
        </mxCell>
        <mxCell id="2OkvmSdykoSW6WmN8zV1-35" value="" style="edgeStyle=none;shape=connector;curved=1;rounded=0;orthogonalLoop=1;jettySize=auto;html=1;strokeColor=default;align=center;verticalAlign=middle;fontFamily=Helvetica;fontSize=12;fontColor=default;labelBackgroundColor=default;startSize=8;endArrow=classic;endSize=8;entryX=0;entryY=0.5;entryDx=0;entryDy=0;" parent="1" source="2OkvmSdykoSW6WmN8zV1-28" target="2OkvmSdykoSW6WmN8zV1-47" edge="1">
          <mxGeometry relative="1" as="geometry">
            <mxPoint x="1710" y="2690" as="targetPoint" />
          </mxGeometry>
        </mxCell>
        <mxCell id="2OkvmSdykoSW6WmN8zV1-36" value="是" style="edgeLabel;html=1;align=center;verticalAlign=middle;resizable=0;points=[];fontFamily=Helvetica;fontSize=12;fontColor=default;labelBackgroundColor=default;" parent="2OkvmSdykoSW6WmN8zV1-35" vertex="1" connectable="0">
          <mxGeometry x="-0.0909" y="-1" relative="1" as="geometry">
            <mxPoint as="offset" />
          </mxGeometry>
        </mxCell>
        <mxCell id="2OkvmSdykoSW6WmN8zV1-38" value="" style="edgeStyle=none;shape=connector;curved=1;rounded=0;orthogonalLoop=1;jettySize=auto;html=1;strokeColor=default;align=center;verticalAlign=middle;fontFamily=Helvetica;fontSize=12;fontColor=default;labelBackgroundColor=default;startSize=8;endArrow=classic;endSize=8;entryX=0.5;entryY=1;entryDx=0;entryDy=0;" parent="1" source="2OkvmSdykoSW6WmN8zV1-28" target="2OkvmSdykoSW6WmN8zV1-46" edge="1">
          <mxGeometry relative="1" as="geometry">
            <mxPoint x="1542.5" y="2550" as="targetPoint" />
          </mxGeometry>
        </mxCell>
        <mxCell id="2OkvmSdykoSW6WmN8zV1-39" value="否" style="edgeLabel;html=1;align=center;verticalAlign=middle;resizable=0;points=[];fontFamily=Helvetica;fontSize=12;fontColor=default;labelBackgroundColor=default;" parent="2OkvmSdykoSW6WmN8zV1-38" vertex="1" connectable="0">
          <mxGeometry x="-0.2421" y="1" relative="1" as="geometry">
            <mxPoint x="1" as="offset" />
          </mxGeometry>
        </mxCell>
        <mxCell id="2OkvmSdykoSW6WmN8zV1-28" value="校验是否上传附件和电票" style="rhombus;whiteSpace=wrap;html=1;rounded=0;" parent="1" vertex="1">
          <mxGeometry x="1485" y="2645" width="115" height="90" as="geometry" />
        </mxCell>
        <mxCell id="2OkvmSdykoSW6WmN8zV1-43" value="调用gr2p审批通过接口" style="whiteSpace=wrap;html=1;rounded=0;" parent="1" vertex="1">
          <mxGeometry x="785" y="2475" width="120" height="60" as="geometry" />
        </mxCell>
        <mxCell id="2OkvmSdykoSW6WmN8zV1-45" value="调用gr2p审批通过接口" style="whiteSpace=wrap;html=1;rounded=0;" parent="1" vertex="1">
          <mxGeometry x="1230" y="2475" width="120" height="60" as="geometry" />
        </mxCell>
        <mxCell id="2OkvmSdykoSW6WmN8zV1-46" value="返回上传附件与上传电票必填" style="whiteSpace=wrap;html=1;rounded=0;" parent="1" vertex="1">
          <mxGeometry x="1485" y="2475" width="120" height="60" as="geometry" />
        </mxCell>
        <mxCell id="2OkvmSdykoSW6WmN8zV1-47" value="调用gr2p审批通过接口" style="whiteSpace=wrap;html=1;rounded=0;" parent="1" vertex="1">
          <mxGeometry x="1720" y="2660" width="120" height="60" as="geometry" />
        </mxCell>
        <mxCell id="2OkvmSdykoSW6WmN8zV1-50" value="调用gr2p查询发票" style="rounded=0;whiteSpace=wrap;html=1;" parent="1" vertex="1">
          <mxGeometry x="520" y="2910" width="120" height="60" as="geometry" />
        </mxCell>
        <mxCell id="2OkvmSdykoSW6WmN8zV1-51" style="edgeStyle=none;shape=connector;curved=1;rounded=0;orthogonalLoop=1;jettySize=auto;html=1;entryX=-0.008;entryY=0.65;entryDx=0;entryDy=0;entryPerimeter=0;strokeColor=default;align=center;verticalAlign=middle;fontFamily=Helvetica;fontSize=12;fontColor=default;labelBackgroundColor=default;startSize=8;endArrow=classic;endSize=8;" parent="1" source="2OkvmSdykoSW6WmN8zV1-3" target="2OkvmSdykoSW6WmN8zV1-50" edge="1">
          <mxGeometry relative="1" as="geometry" />
        </mxCell>
        <mxCell id="2OkvmSdykoSW6WmN8zV1-52" value="新" style="edgeLabel;html=1;align=center;verticalAlign=middle;resizable=0;points=[];fontFamily=Helvetica;fontSize=12;fontColor=default;labelBackgroundColor=default;" parent="2OkvmSdykoSW6WmN8zV1-51" vertex="1" connectable="0">
          <mxGeometry x="-0.0629" y="2" relative="1" as="geometry">
            <mxPoint as="offset" />
          </mxGeometry>
        </mxCell>
        <mxCell id="2OkvmSdykoSW6WmN8zV1-53" value="" style="edgeStyle=none;shape=connector;curved=1;rounded=0;orthogonalLoop=1;jettySize=auto;html=1;strokeColor=default;align=center;verticalAlign=middle;fontFamily=Helvetica;fontSize=12;fontColor=default;labelBackgroundColor=default;startSize=8;endArrow=classic;endSize=8;entryX=0;entryY=0.5;entryDx=0;entryDy=0;exitX=1;exitY=0.5;exitDx=0;exitDy=0;" parent="1" source="2OkvmSdykoSW6WmN8zV1-50" target="2OkvmSdykoSW6WmN8zV1-58" edge="1">
          <mxGeometry relative="1" as="geometry">
            <mxPoint x="650" y="2935" as="sourcePoint" />
          </mxGeometry>
        </mxCell>
        <mxCell id="2OkvmSdykoSW6WmN8zV1-54" value="" style="edgeStyle=none;shape=connector;curved=1;rounded=0;orthogonalLoop=1;jettySize=auto;html=1;strokeColor=default;align=center;verticalAlign=middle;fontFamily=Helvetica;fontSize=12;fontColor=default;labelBackgroundColor=default;startSize=8;endArrow=classic;endSize=8;exitX=1;exitY=0.5;exitDx=0;exitDy=0;" parent="1" source="2OkvmSdykoSW6WmN8zV1-58" target="2OkvmSdykoSW6WmN8zV1-60" edge="1">
          <mxGeometry relative="1" as="geometry" />
        </mxCell>
        <mxCell id="2OkvmSdykoSW6WmN8zV1-55" value="无" style="edgeLabel;html=1;align=center;verticalAlign=middle;resizable=0;points=[];fontFamily=Helvetica;fontSize=12;fontColor=default;labelBackgroundColor=default;" parent="2OkvmSdykoSW6WmN8zV1-54" vertex="1" connectable="0">
          <mxGeometry x="-0.088" y="-1" relative="1" as="geometry">
            <mxPoint as="offset" />
          </mxGeometry>
        </mxCell>
        <mxCell id="2OkvmSdykoSW6WmN8zV1-56" value="" style="edgeStyle=none;shape=connector;curved=1;rounded=0;orthogonalLoop=1;jettySize=auto;html=1;strokeColor=default;align=center;verticalAlign=middle;fontFamily=Helvetica;fontSize=12;fontColor=default;labelBackgroundColor=default;startSize=8;endArrow=classic;endSize=8;" parent="1" source="2OkvmSdykoSW6WmN8zV1-58" target="2OkvmSdykoSW6WmN8zV1-71" edge="1">
          <mxGeometry relative="1" as="geometry">
            <mxPoint x="855" y="2780" as="targetPoint" />
          </mxGeometry>
        </mxCell>
        <mxCell id="2OkvmSdykoSW6WmN8zV1-57" value="有" style="edgeLabel;html=1;align=center;verticalAlign=middle;resizable=0;points=[];fontFamily=Helvetica;fontSize=12;fontColor=default;labelBackgroundColor=default;" parent="2OkvmSdykoSW6WmN8zV1-56" vertex="1" connectable="0">
          <mxGeometry x="-0.1122" relative="1" as="geometry">
            <mxPoint as="offset" />
          </mxGeometry>
        </mxCell>
        <mxCell id="2OkvmSdykoSW6WmN8zV1-58" value="判断有无线下纸质材料" style="rhombus;whiteSpace=wrap;html=1;rounded=0;" parent="1" vertex="1">
          <mxGeometry x="800" y="2890" width="110" height="105" as="geometry" />
        </mxCell>
        <mxCell id="2OkvmSdykoSW6WmN8zV1-59" value="" style="edgeStyle=none;shape=connector;curved=1;rounded=0;orthogonalLoop=1;jettySize=auto;html=1;strokeColor=default;align=center;verticalAlign=middle;fontFamily=Helvetica;fontSize=12;fontColor=default;labelBackgroundColor=default;startSize=8;endArrow=classic;endSize=8;" parent="1" source="2OkvmSdykoSW6WmN8zV1-60" target="2OkvmSdykoSW6WmN8zV1-65" edge="1">
          <mxGeometry relative="1" as="geometry" />
        </mxCell>
        <mxCell id="2OkvmSdykoSW6WmN8zV1-60" value="调用base新审批记录接口" style="whiteSpace=wrap;html=1;rounded=0;fillColor=#e1d5e7;strokeColor=#9673a6;" parent="1" vertex="1">
          <mxGeometry x="1005" y="2912.5" width="120" height="60" as="geometry" />
        </mxCell>
        <mxCell id="2OkvmSdykoSW6WmN8zV1-61" value="" style="edgeStyle=none;shape=connector;curved=1;rounded=0;orthogonalLoop=1;jettySize=auto;html=1;strokeColor=default;align=center;verticalAlign=middle;fontFamily=Helvetica;fontSize=12;fontColor=default;labelBackgroundColor=default;startSize=8;endArrow=classic;endSize=8;" parent="1" source="2OkvmSdykoSW6WmN8zV1-65" target="2OkvmSdykoSW6WmN8zV1-70" edge="1">
          <mxGeometry relative="1" as="geometry" />
        </mxCell>
        <mxCell id="2OkvmSdykoSW6WmN8zV1-62" value="是" style="edgeLabel;html=1;align=center;verticalAlign=middle;resizable=0;points=[];fontFamily=Helvetica;fontSize=12;fontColor=default;labelBackgroundColor=default;" parent="2OkvmSdykoSW6WmN8zV1-61" vertex="1" connectable="0">
          <mxGeometry x="-0.2714" y="-1" relative="1" as="geometry">
            <mxPoint as="offset" />
          </mxGeometry>
        </mxCell>
        <mxCell id="2OkvmSdykoSW6WmN8zV1-63" value="" style="edgeStyle=none;shape=connector;curved=1;rounded=0;orthogonalLoop=1;jettySize=auto;html=1;strokeColor=default;align=center;verticalAlign=middle;fontFamily=Helvetica;fontSize=12;fontColor=default;labelBackgroundColor=default;startSize=8;endArrow=classic;endSize=8;entryX=0.5;entryY=0;entryDx=0;entryDy=0;" parent="1" source="2OkvmSdykoSW6WmN8zV1-65" target="2OkvmSdykoSW6WmN8zV1-72" edge="1">
          <mxGeometry relative="1" as="geometry">
            <mxPoint x="1300" y="3100" as="targetPoint" />
          </mxGeometry>
        </mxCell>
        <mxCell id="2OkvmSdykoSW6WmN8zV1-64" value="否" style="edgeLabel;html=1;align=center;verticalAlign=middle;resizable=0;points=[];fontFamily=Helvetica;fontSize=12;fontColor=default;labelBackgroundColor=default;" parent="2OkvmSdykoSW6WmN8zV1-63" vertex="1" connectable="0">
          <mxGeometry x="-0.043" y="1" relative="1" as="geometry">
            <mxPoint x="1" as="offset" />
          </mxGeometry>
        </mxCell>
        <mxCell id="2OkvmSdykoSW6WmN8zV1-65" value="判断当前节点是否为&lt;div&gt;账单协同确认&lt;/div&gt;" style="rhombus;whiteSpace=wrap;html=1;rounded=0;fillColor=#e1d5e7;strokeColor=#9673a6;" parent="1" vertex="1">
          <mxGeometry x="1230" y="2893.75" width="125" height="97.5" as="geometry" />
        </mxCell>
        <mxCell id="2OkvmSdykoSW6WmN8zV1-66" value="" style="edgeStyle=none;shape=connector;curved=1;rounded=0;orthogonalLoop=1;jettySize=auto;html=1;strokeColor=default;align=center;verticalAlign=middle;fontFamily=Helvetica;fontSize=12;fontColor=default;labelBackgroundColor=default;startSize=8;endArrow=classic;endSize=8;entryX=0;entryY=0.5;entryDx=0;entryDy=0;" parent="1" source="2OkvmSdykoSW6WmN8zV1-70" edge="1">
          <mxGeometry relative="1" as="geometry">
            <mxPoint x="1730" y="2942.5" as="targetPoint" />
          </mxGeometry>
        </mxCell>
        <mxCell id="2OkvmSdykoSW6WmN8zV1-67" value="是" style="edgeLabel;html=1;align=center;verticalAlign=middle;resizable=0;points=[];fontFamily=Helvetica;fontSize=12;fontColor=default;labelBackgroundColor=default;" parent="2OkvmSdykoSW6WmN8zV1-66" vertex="1" connectable="0">
          <mxGeometry x="-0.0909" y="-1" relative="1" as="geometry">
            <mxPoint as="offset" />
          </mxGeometry>
        </mxCell>
        <mxCell id="2OkvmSdykoSW6WmN8zV1-68" value="" style="edgeStyle=none;shape=connector;curved=1;rounded=0;orthogonalLoop=1;jettySize=auto;html=1;strokeColor=default;align=center;verticalAlign=middle;fontFamily=Helvetica;fontSize=12;fontColor=default;labelBackgroundColor=default;startSize=8;endArrow=classic;endSize=8;entryX=0.5;entryY=0;entryDx=0;entryDy=0;" parent="1" source="2OkvmSdykoSW6WmN8zV1-70" target="2OkvmSdykoSW6WmN8zV1-73" edge="1">
          <mxGeometry relative="1" as="geometry">
            <mxPoint x="1555" y="2780" as="targetPoint" />
          </mxGeometry>
        </mxCell>
        <mxCell id="2OkvmSdykoSW6WmN8zV1-69" value="否" style="edgeLabel;html=1;align=center;verticalAlign=middle;resizable=0;points=[];fontFamily=Helvetica;fontSize=12;fontColor=default;labelBackgroundColor=default;" parent="2OkvmSdykoSW6WmN8zV1-68" vertex="1" connectable="0">
          <mxGeometry x="-0.2421" y="1" relative="1" as="geometry">
            <mxPoint x="1" as="offset" />
          </mxGeometry>
        </mxCell>
        <mxCell id="2OkvmSdykoSW6WmN8zV1-70" value="校验是否上传附件和电票" style="rhombus;whiteSpace=wrap;html=1;rounded=0;" parent="1" vertex="1">
          <mxGeometry x="1495" y="2897.5" width="115" height="90" as="geometry" />
        </mxCell>
        <mxCell id="2OkvmSdykoSW6WmN8zV1-71" value="调用gr2p审批通过接口" style="whiteSpace=wrap;html=1;rounded=0;" parent="1" vertex="1">
          <mxGeometry x="800" y="3110" width="120" height="60" as="geometry" />
        </mxCell>
        <mxCell id="2OkvmSdykoSW6WmN8zV1-72" value="调用gr2p审批通过接口" style="whiteSpace=wrap;html=1;rounded=0;" parent="1" vertex="1">
          <mxGeometry x="1235" y="3110" width="120" height="60" as="geometry" />
        </mxCell>
        <mxCell id="2OkvmSdykoSW6WmN8zV1-73" value="返回上传附件与上传电票必填" style="whiteSpace=wrap;html=1;rounded=0;" parent="1" vertex="1">
          <mxGeometry x="1492.5" y="3110" width="120" height="60" as="geometry" />
        </mxCell>
        <mxCell id="2OkvmSdykoSW6WmN8zV1-74" value="调用gr2p审批通过接口" style="whiteSpace=wrap;html=1;rounded=0;" parent="1" vertex="1">
          <mxGeometry x="1730" y="2905" width="120" height="60" as="geometry" />
        </mxCell>
        <mxCell id="2OkvmSdykoSW6WmN8zV1-77" style="edgeStyle=none;shape=connector;curved=1;rounded=0;orthogonalLoop=1;jettySize=auto;html=1;entryX=0;entryY=0.5;entryDx=0;entryDy=0;strokeColor=default;align=center;verticalAlign=middle;fontFamily=Helvetica;fontSize=12;fontColor=default;labelBackgroundColor=default;startSize=8;endArrow=classic;endSize=8;dashed=1;" parent="1" source="2OkvmSdykoSW6WmN8zV1-75" target="KhluZh3JoP7vQR8Mc1Ra-52" edge="1">
          <mxGeometry relative="1" as="geometry" />
        </mxCell>
        <mxCell id="2OkvmSdykoSW6WmN8zV1-78" value="无" style="edgeLabel;html=1;align=center;verticalAlign=middle;resizable=0;points=[];fontFamily=Helvetica;fontSize=12;fontColor=default;labelBackgroundColor=default;" parent="2OkvmSdykoSW6WmN8zV1-77" vertex="1" connectable="0">
          <mxGeometry x="-0.2258" y="2" relative="1" as="geometry">
            <mxPoint as="offset" />
          </mxGeometry>
        </mxCell>
        <mxCell id="2OkvmSdykoSW6WmN8zV1-79" style="edgeStyle=none;shape=connector;curved=1;rounded=0;orthogonalLoop=1;jettySize=auto;html=1;strokeColor=default;align=center;verticalAlign=middle;fontFamily=Helvetica;fontSize=12;fontColor=default;labelBackgroundColor=default;startSize=8;endArrow=classic;endSize=8;entryX=0;entryY=0.5;entryDx=0;entryDy=0;dashed=1;" parent="1" source="2OkvmSdykoSW6WmN8zV1-75" target="2OkvmSdykoSW6WmN8zV1-80" edge="1">
          <mxGeometry relative="1" as="geometry">
            <mxPoint x="1850" y="1550" as="targetPoint" />
          </mxGeometry>
        </mxCell>
        <mxCell id="2OkvmSdykoSW6WmN8zV1-75" value="有无线下纸质材料" style="rhombus;whiteSpace=wrap;html=1;rounded=0;" parent="1" vertex="1">
          <mxGeometry x="1605" y="1380" width="80" height="80" as="geometry" />
        </mxCell>
        <mxCell id="2OkvmSdykoSW6WmN8zV1-80" value="FSSC收单" style="rounded=0;whiteSpace=wrap;html=1;fontFamily=Helvetica;fontSize=12;fontColor=default;labelBackgroundColor=default;" parent="1" vertex="1">
          <mxGeometry x="1830" y="1250" width="120" height="60" as="geometry" />
        </mxCell>
        <mxCell id="2OkvmSdykoSW6WmN8zV1-82" value="上传本次审批的附件，并传入审批记录中" style="whiteSpace=wrap;html=1;rounded=0;fillColor=#ffcc99;strokeColor=#36393d;" parent="1" vertex="1">
          <mxGeometry x="2080" y="1530" width="120" height="60" as="geometry" />
        </mxCell>
        <mxCell id="2OkvmSdykoSW6WmN8zV1-84" value="" style="edgeStyle=none;shape=connector;curved=1;rounded=0;orthogonalLoop=1;jettySize=auto;html=1;strokeColor=default;align=center;verticalAlign=middle;fontFamily=Helvetica;fontSize=12;fontColor=default;labelBackgroundColor=default;startSize=8;endArrow=classic;endSize=8;exitX=0.5;exitY=1;exitDx=0;exitDy=0;" parent="1" target="2OkvmSdykoSW6WmN8zV1-85" edge="1">
          <mxGeometry relative="1" as="geometry">
            <mxPoint x="2850" y="1435" as="sourcePoint" />
          </mxGeometry>
        </mxCell>
        <mxCell id="2OkvmSdykoSW6WmN8zV1-85" value="上传本次审批的附件，并传入审批记录中" style="whiteSpace=wrap;html=1;rounded=0;fillColor=#ffcc99;strokeColor=#36393d;" parent="1" vertex="1">
          <mxGeometry x="2790" y="1530" width="120" height="60" as="geometry" />
        </mxCell>
        <mxCell id="2OkvmSdykoSW6WmN8zV1-86" value="审批流程结束" style="whiteSpace=wrap;html=1;rounded=0;" parent="1" vertex="1">
          <mxGeometry x="2990" y="1390" width="120" height="60" as="geometry" />
        </mxCell>
      </root>
    </mxGraphModel>
  </diagram>
</mxfile>
